<?xml version="1.0" encoding="utf-8" ?>
<svg xmlns="http://www.w3.org/2000/svg" xmlns:xlink="http://www.w3.org/1999/xlink" width="530" height="450">
	<path fill="white" transform="scale(0.365014 0.378788)" d="M20.5136 1015.12L53.422 1015.26L52.4521 1174.18C42.3227 1175.28 30.9329 1174.19 20.6796 1174.08L20.5136 1015.12Z"/>
	<path fill="white" transform="scale(0.365014 0.378788)" d="M690.5 1014.69C699.817 1013.8 710.702 1014.05 720.021 1014.86C719.827 1018.92 716.997 1024.64 715.606 1028.57L704.805 1059.7L666.967 1174.37L627.36 1174.05L592.478 1060.59L578.357 1014.94L611.25 1014.87L611.341 1015.8C612.787 1030.35 617.267 1043.84 621.187 1057.86L634.634 1106L640.48 1127.61C641.513 1131.73 642.22 1136.19 643.66 1140.17C644.464 1142.4 644.818 1142.76 646.594 1144.22L648.366 1143.98C654.235 1135.5 656.659 1121.85 659.903 1112.02L680.261 1050.51L688.778 1015.49L690.5 1014.69Z"/>
	<path fill="white" transform="scale(0.365014 0.378788)" d="M1306.41 1014.65C1317.1 1014.08 1328.95 1013.8 1339.57 1014.98C1337.54 1032.34 1338.11 1049.71 1337.77 1067.14C1337.65 1073.17 1335.83 1082.01 1337.84 1087.7L1338.92 1088.08C1345.66 1083.89 1350.69 1073.94 1355.52 1067.61L1386.46 1026.76C1389.05 1022.96 1391.28 1018.88 1393.54 1014.88L1427.58 1015.09L1371.85 1089.16C1374.25 1096.29 1382.62 1105.13 1387.38 1111.15L1415.9 1147.11L1434.31 1171.29L1405.56 1175.98C1404.16 1176.1 1400.16 1176.79 1398.95 1176.36C1397.11 1175.72 1365.31 1130.69 1361.44 1125.02L1349.46 1107.08C1345.59 1101.2 1342.66 1096.03 1337.14 1091.35L1338.55 1174.42L1306.72 1175.15L1306.41 1014.65Z"/>
	<path fill="white" transform="scale(0.365014 0.378788)" d="M1045.58 1014.45L1083.92 1015.07L1133.54 1174.4L1100.33 1174.51L1093.03 1138.35L1080.1 1137.75L1032.91 1137.57C1027.78 1149.27 1024.95 1161.88 1022.79 1174.42L991.525 1174.54L1045.58 1014.45ZM1063.03 1044.46C1060.3 1048.32 1059.24 1052.94 1057.91 1057.41L1052.13 1076.8L1040.27 1113.61L1062.88 1114.04L1085 1113.33C1081.96 1098.96 1077.4 1085.26 1073.43 1071.16C1071.8 1065.39 1069.28 1048.16 1064.43 1045.08C1063.44 1044.45 1063.87 1044.59 1063.03 1044.46Z"/>
	<path fill="white" transform="scale(0.365014 0.378788)" d="M772.431 1014.69C775.674 1013.85 780.201 1014.39 783.586 1014.39L809.557 1014.96L858.677 1174.43L825.64 1174.38C824.403 1162.94 821.547 1149.32 817.467 1138.56C813.42 1137.34 809.067 1137.55 804.875 1137.51L757.015 1137.77L747.56 1174.38L716.1 1174.79C721.627 1161.21 725.784 1147.08 730.48 1133.2L757.652 1052.77C761.408 1041.8 764.227 1030.08 768.826 1019.46C769.739 1017.35 770.438 1015.97 772.431 1014.69ZM788.528 1044.46C782.482 1054.08 780.2 1065.75 776.752 1076.46C772.859 1088.55 767.948 1101.05 765.949 1113.61L789.077 1114.05L810.81 1113.55L799.384 1073.92L795.211 1058.58C794.013 1053.77 793.271 1048.33 789.884 1044.51L788.528 1044.46Z"/>
	<path fill="white" transform="scale(0.365014 0.378788)" d="M885.636 1014.69C894.609 1013.91 904.095 1014.47 913.119 1014.46C929.052 1014.43 946.859 1013.03 962.446 1016.61C968.217 1017.93 973.746 1020.53 978.486 1024.07C988.536 1031.56 993.881 1041.42 995.616 1053.75C997.789 1069.19 994.107 1087 984.464 1099.46C973.21 1114.01 957.295 1119.52 939.605 1121.83L915.23 1123.6L915.797 1174.38L884.032 1174.23L883.865 1015.78L885.636 1014.69ZM919.28 1038.79C918.029 1039.19 917.218 1039.07 916.54 1040.28C914.136 1044.54 915.435 1055.62 915.418 1060.57L915.358 1099.23C929.78 1100.07 940.109 1102.04 952.101 1092.74C958.92 1085.6 963.001 1076.83 962.857 1066.84C962.753 1059.61 960.863 1050.79 955.436 1045.61C947.095 1037.64 933.786 1037.87 923.111 1038.49L919.28 1038.79Z"/>
	<path fill="white" transform="scale(0.365014 0.378788)" d="M268.484 1014.64L296.364 1014.49C297.662 1014.54 302.173 1014.36 303.099 1014.92C305.107 1016.15 309.172 1024.6 310.641 1027.02L347.15 1087.34C354.67 1099.9 361.217 1114.62 371.248 1125.28C373.134 1115.79 372.489 1105.3 372.625 1095.64L372.21 1015.85L401.247 1014.73L400.299 1174.32L376.602 1174.41C373.871 1174.41 369.245 1174.92 366.718 1174.17C366.421 1174.08 365.309 1172.98 365.267 1172.93C359.872 1167.26 356.29 1158.04 352.211 1151.3L317.005 1093.16C312.318 1085.52 308.105 1077.2 302.9 1069.91C301.177 1067.5 298.933 1065.42 296.768 1063.41C295.383 1074.53 296.315 1086.57 296.409 1097.79L297.644 1174.43L268.075 1174.37L268.484 1014.64Z"/>
	<path fill="white" transform="scale(0.365014 0.378788)" d="M97.1952 1014.69C100.211 1014.49 128.332 1014.26 129.623 1015.09C131.532 1016.33 137.751 1028.35 139.502 1031.26L179.302 1097.08C184.093 1104.88 188.252 1114.07 194.155 1121.03C195.545 1122.67 196.851 1123.43 198.87 1124.12C200.179 1120.54 199.427 1115.43 199.388 1111.58L198.936 1081.25L197.971 1016.74C207.737 1014.83 217.839 1014.95 227.751 1014.73L227.422 1174.18L224.394 1174.42L192.15 1174.34C188.858 1167.77 184.514 1161.44 180.682 1155.15L160.467 1121.67L140.733 1088.73C135.384 1079.69 130.887 1070.23 123.82 1062.36L123.538 1174.38L95.1903 1174.27L95.1285 1015.4L97.1952 1014.69Z"/>
	<path fill="white" transform="scale(0.365014 0.378788)" d="M1159.19 1014.66L1225.39 1014.59C1239.3 1015.65 1252.16 1019.77 1261.4 1030.74C1269.96 1040.91 1272.23 1053.14 1271.05 1066.08C1269.18 1086.67 1257.05 1099.3 1241.85 1111.64C1253.09 1131.85 1270.77 1149.02 1280.54 1169.91C1271.79 1173.19 1262.85 1174.57 1253.65 1175.79L1246.35 1176.04C1240.93 1170.39 1237.05 1161.79 1233.32 1154.84L1214.95 1120.1C1206.79 1119.29 1197.73 1120.36 1189.49 1120.63L1191.31 1174.4L1159.38 1174.56L1159.19 1014.66ZM1198.73 1038.61C1196.36 1039.05 1194.04 1039.29 1191.99 1040.64C1190.11 1050.01 1190.4 1060.13 1190.26 1069.65L1189.78 1095.15C1201.59 1096.21 1214.07 1098.1 1224.76 1092.1C1232.71 1084.97 1236.29 1078.92 1236.92 1068.15C1237.32 1061.3 1236.86 1053.1 1232.33 1047.58C1227.26 1041.39 1216.17 1038.66 1208.46 1038.42L1198.73 1038.61Z"/>
	<path fill="white" transform="scale(0.365014 0.378788)" d="M496.895 1013.2L497.977 1013.07C514.669 1011.13 534.07 1015.71 547.178 1026.34C564.261 1040.2 570.114 1061.3 572.081 1082.35C574.314 1106.26 569.492 1134.63 553.586 1153.42C541.788 1167.36 522.79 1174.41 504.974 1175.92C486.53 1176.9 468.681 1174.91 453.644 1163.2C438.546 1151.44 430.802 1131.38 428.58 1112.81C425.271 1085.18 429.293 1056.83 447.184 1034.56C459.576 1019.13 478.304 1015.19 496.895 1013.2ZM494.8 1038.62C484.866 1040.3 476.093 1043.18 470.084 1051.72C458.163 1068.65 459.627 1099.9 463.192 1119.6C465.093 1130.1 469.238 1141.09 478.457 1147.3C485.194 1151.83 496.383 1153.9 504.392 1152.38C514.971 1150.48 523.811 1148.42 530.219 1139.06C533.853 1133.75 535.365 1127.06 536.588 1120.84C540.03 1103.32 539.707 1086.06 536.168 1068.56C534.163 1058.65 529.422 1049.23 520.697 1043.6C513.399 1038.89 503.304 1037.55 494.8 1038.62Z"/>
	<path fill="white" transform="scale(0.365014 0.378788)" d="M716.821 40.7578L718.401 40.6203C739.688 39.0563 762.451 41.7792 783.5 44.8627C808.292 48.4944 833.028 53.6343 856.891 61.3569C914.131 79.8809 966.039 110.196 1011.34 149.647C1095.08 222.563 1143.84 331.809 1151.09 441.644C1156.32 520.768 1134.75 602.255 1096.72 671.263C1083.83 694.662 1069.24 717.144 1051.49 737.187C1033.43 757.589 1013.82 777.516 992.635 794.642C937.859 838.917 871.266 868.17 802.006 880.463C780.963 884.198 759.695 885.882 738.39 887.162L737.609 887.218C713.697 888.348 689.413 885.909 665.806 882.236C581.95 869.193 507.482 833.812 443.972 777.514C360.045 703.116 311.705 594.009 305.284 482.928C298.84 371.471 342.277 261.446 415.938 178.74C473.2 114.447 552.372 70.7061 635.952 51.4862C662.579 45.3632 689.592 42.3343 716.821 40.7578Z"/>
	<path fill="#199E55" transform="scale(0.365014 0.378788)" d="M529.345 243.401C551.082 242.067 573.602 243.092 595.436 243.049L635.281 243.104C640.666 243.142 649.448 242.239 654.415 244.406C658.589 246.227 664.608 252.779 666.376 256.944L666.711 257.813C667.249 259.177 667.636 260.445 667.747 261.913C668.249 268.508 667.965 275.326 668.108 281.956L667.973 344.888C667.831 359.047 669.603 374.043 666.968 387.996C666.167 392.237 664.433 396 661.459 399.153C653.935 407.128 640.695 405.701 630.739 405.725L609.252 405.725L608.907 663.472L655.17 662.877L655.091 630.835C649.005 629.307 645.222 627.131 641.172 622.322C630.581 609.745 630.135 594.561 629.811 578.946C629.605 568.973 629.671 559.117 630.491 549.166C630.906 544.129 631.709 538.914 633.849 534.293C638.523 524.203 649.393 515.716 657.762 508.712C649.959 508.285 642.975 507.94 637.141 502.056C632.525 497.399 630.053 491.834 630.212 485.272C630.368 478.814 633.021 472.807 637.71 468.372C643.691 462.713 651.155 461.824 659.001 462.136C668.735 462.522 671.617 464.712 678.021 471.759C679.321 461.948 680.898 453.433 685.691 444.641C691.902 433.25 702.564 424.112 715.179 420.642C723.42 418.375 733.382 418.969 741.872 418.905L780.941 418.813L827.937 418.902C838.383 418.95 849.16 418.69 859.538 419.956C864.218 420.527 868.302 422.112 872.337 424.521C889.924 435.021 895.31 452.199 900.147 470.929C902.54 468.757 905.603 466.401 908.565 465.112C916.244 461.768 925.062 461.216 932.791 464.469L933.694 464.853C936.712 466.551 939.429 468.439 941.771 471.018C945.295 474.896 947.453 480.675 947.084 485.935C946.614 492.654 942.987 499.978 937.88 504.372C932.213 509.248 925.67 508.891 918.69 508.467C926.68 515.337 936.082 522.427 941.692 531.476C943.86 534.973 945.551 539.072 946.377 543.106C948.145 551.75 947.588 560.827 947.495 569.602C947.371 581.139 947.758 592.994 945.113 604.3C941.86 618.208 934.177 624.245 922.583 631.346L922.335 663.463L937.614 664.059C938.93 664.148 941.772 664.169 942.949 664.823C943.781 665.286 944.676 666.237 945.431 666.855L945.431 667.997L943.038 667.184L942.24 666.843L941.253 668.312C941.164 670.715 941.049 672.819 941.708 675.161L944.113 676.411C943.502 677.425 943.136 678.248 941.966 678.741C939.898 679.613 935.32 679.123 932.996 679.151L907.233 679.361L624.342 679.76L544.37 679.429L525.104 679.212C522.389 679.173 518.995 679.552 516.495 678.421C514.833 677.669 514.126 677.299 513.502 675.614C514.879 675.342 516.528 675.188 517.884 675.584C520.641 676.389 523.828 676.494 526.421 675.186L526.269 673.947C523.778 672.637 520.497 673.475 517.781 673.767C515.988 672.236 516.271 671.756 515.989 669.49C519.097 667.035 524.622 669.963 528.089 667.602C529.171 666.865 528.918 666.737 529.119 665.559L527.019 663.994C530.584 662.766 535.844 663.442 539.712 663.419L568.551 663.298L568.563 406.086L543.068 405.606C536.741 405.538 528.569 406.444 522.764 403.692C517.8 401.337 513.968 395.784 512.365 390.659C510.686 385.292 511.036 379.594 511.003 374.038L510.849 350.258C510.687 334.377 508.093 264.06 513.317 255.292C516.98 249.144 522.424 245.12 529.345 243.401Z"/>
	<path fill="#F9F9F9" transform="scale(0.365014 0.378788)" d="M652.909 479.364C656.296 478.801 659.632 478.645 662.87 479.997C664.901 480.844 666.411 482.158 667.138 484.272C667.867 486.391 668.879 489.802 667.86 491.749L663.515 491.982C659.105 491.985 651.219 492.56 647.788 489.358C646.115 487.797 646.641 485.902 646.655 483.777C648.284 481.54 650.515 480.606 652.909 479.364Z"/>
	<path fill="#F9F9F9" transform="scale(0.365014 0.378788)" d="M919.287 478.535C921.507 478.401 923.56 478.455 925.731 479.008C927.559 479.473 929.167 480.338 930.103 482.028C931.284 484.158 930.898 486.544 930.179 488.739C926.988 492.215 923.135 491.813 918.67 492.139L915.23 492.427C912.669 492.573 910.268 492.607 908.319 490.865C908.462 489.411 908.693 488.045 909.296 486.699C911.441 481.904 914.704 480.338 919.287 478.535Z"/>
	<path fill="white" transform="scale(0.365014 0.378788)" d="M671.676 634.044L719.047 633.733L718.74 662.754L671.473 663.304L671.676 634.044Z"/>
	<path fill="white" transform="scale(0.365014 0.378788)" d="M862.341 634.048L905.799 633.719C905.929 641.04 906.145 648.397 905.733 655.711C905.609 657.931 905.802 660.684 904.533 662.556L900.546 662.912L857.85 663.318L857.54 643.157C857.636 640.291 857.474 637.232 858.805 634.639L862.341 634.048Z"/>
	<path fill="#F9F9F9" transform="scale(0.365014 0.378788)" d="M586.425 405.805C588.356 405.62 590.331 405.162 592.133 406.047C592.38 406.698 592.594 407.231 592.663 407.932C593.394 415.325 592.688 423.634 592.694 431.119L592.71 482.316L592.698 619.699L592.742 650.636C592.744 653.707 593.396 658.893 592.599 661.693C592.503 662.028 591.246 663.131 590.938 663.457L585.68 663.111L584.839 661.693L584.727 489.114L584.799 434.919C584.794 427.78 584.149 420.524 584.477 413.41C584.604 410.653 584.745 408.116 586.425 405.805Z"/>
	<path fill="white" transform="scale(0.365014 0.378788)" d="M735.954 633.718L841.505 634.01L841.27 662.902L735.912 663.313L735.954 633.718Z"/>
	<path fill="white" transform="scale(0.365014 0.378788)" d="M703.956 505.473C697.885 505.294 691.765 502.147 686.711 499.075L692.643 475.891C695.197 465.825 697.802 454.765 704.231 446.408C708.428 440.953 714.061 437.443 720.938 436.544C730.332 435.317 740.119 435.82 749.585 435.808L794.982 435.785L833.562 435.802C840.472 435.807 847.811 435.302 854.661 436.135C859.36 436.706 864.311 438.046 868.048 441.048C877.191 448.393 879.941 458.425 883.2 469.172C886.172 478.969 888.593 488.518 889.582 498.741C886.388 501.686 884.01 503.103 879.713 503.896C876.083 504.992 872.659 505.872 868.86 506.131C838.052 508.235 806.578 506.512 775.688 506.492L730.534 506.495C722.452 506.488 711.751 507.576 703.956 505.473Z"/>
	<path fill="#F9F9F9" transform="scale(0.365014 0.378788)" d="M703.956 505.473C713.938 503.623 724.288 504.249 734.415 504.224L781.793 504.164L868.155 502.628C871.982 502.68 875.999 502.918 879.713 503.896C876.083 504.992 872.659 505.872 868.86 506.131C838.052 508.235 806.578 506.512 775.688 506.492L730.534 506.495C722.452 506.488 711.751 507.576 703.956 505.473Z"/>
	<path fill="white" transform="scale(0.365014 0.378788)" d="M528.095 259.465L650.328 260.218C651.487 272.934 650.945 285.949 650.938 298.716L650.877 360.973L650.86 380.505C650.859 381.886 651.306 385.478 650.855 386.667C650.606 387.323 650.141 387.875 649.784 388.478C645.524 389.604 640.936 389.235 636.573 389.241L617.274 389.41L528.283 389.052L528.095 259.465Z"/>
	<path fill="#199E55" transform="scale(0.365014 0.378788)" d="M571.828 275.293C576.776 275.052 581.733 275.456 586.685 275.443C596.348 275.418 607.984 273.714 616.781 278.532C623.386 282.15 627.87 288.462 629.735 295.653C631.85 303.802 630.245 317.306 625.839 324.545C622.578 329.904 617.409 333.899 611.238 335.273C602.577 337.203 593.61 336.605 584.775 336.514L576.384 336.282C576.356 344.889 576.918 355.1 575.538 363.531C574.967 367.014 573.44 368.968 570.695 371.073C567.958 371.743 566.049 371.685 563.288 371.165C561.015 369.049 560.224 368.09 559.676 364.902C558.886 360.314 559.345 355.052 559.34 350.379L559.334 323.676C559.333 311.599 558.153 298.913 559.329 286.928C559.601 284.161 560.316 281.266 562.013 279.001C564.73 275.374 567.74 275.756 571.828 275.293Z"/>
	<path fill="white" transform="scale(0.365014 0.378788)" d="M576.287 291.796L597.344 292.003C600.986 292.06 606.17 291.59 609.414 293.462C611.554 294.697 613.066 297.728 613.621 300.03C614.993 305.713 613.693 312.098 610.79 317.091C608.821 318.674 605.812 318.879 603.357 319.161C594.29 320.205 584.871 319.646 575.748 319.53L576.287 291.796Z"/>
	<path fill="#F9F9F9" transform="scale(0.365014 0.378788)" d="M899.073 512.13L900.963 511.943L918.209 529.23C921.693 532.737 926.096 536.445 928.558 540.762C930.213 543.662 930.688 547.476 930.844 550.788L930.916 573.115C930.884 585.128 932.737 601.725 923.702 611.145C920.651 614.325 916.638 616.711 912.246 617.313C900.644 618.903 888.467 618.203 876.775 618.041L829.319 617.518L667.048 617.444C663.711 616.935 660.803 616.443 657.938 614.491C652.601 610.857 648.419 605.13 647.382 598.711L647.21 597.544L646.632 592.228L646.379 562.482C646.347 556.81 645.537 548.884 647.158 543.468C648.22 539.921 651.052 536.704 653.614 534.104C661.187 526.416 669.849 519.98 677.223 512.057C685.761 517.399 694.163 520.675 704.23 521.898C712.708 522.928 721.506 522.725 730.044 522.787L767.851 522.989L834.545 522.877C851.698 522.741 867.939 523.561 884.894 520.093C890.475 518.951 894.698 515.552 899.073 512.13Z"/>
	<path fill="#199E55" transform="scale(0.365014 0.378788)" d="M670.762 549.457L691.211 549.314C697.647 549.307 704.676 548.681 710.34 552.357C715.015 555.392 718.47 560.895 719.702 566.28C721.047 572.152 722.292 581.459 718.7 586.656C715.728 590.958 711.071 594.003 705.967 594.971L683.187 595.47C677.809 595.482 671.905 595.772 666.765 593.894C662.461 592.323 659.048 589.017 657.052 584.917C654.509 579.695 653.912 566.719 656.124 561.321C658.355 555.877 665.67 551.765 670.762 549.457Z"/>
	<path fill="#F9F9F9" transform="scale(0.365014 0.378788)" d="M672.097 564.234C681.17 564.469 691.674 563.744 700.477 565.794C704.164 569.361 704.236 574.193 704.83 579.002L671.924 579.04C671.434 574.13 671.857 569.152 672.097 564.234Z"/>
	<path fill="#199E55" transform="scale(0.365014 0.378788)" d="M881.403 548.901C889.885 547.874 908.669 547.483 915.376 552.876C919.595 556.268 921.908 561.743 922.314 567.064C922.866 574.303 921.668 583.902 916.574 589.475C911.432 595.102 903.755 595.409 896.689 595.719C888.161 596.042 871.243 597.254 864.618 591.853C861.032 588.93 856.647 583.435 856.292 578.665C855.73 571.124 857.958 562.481 862.911 556.613C867.788 550.836 874.278 549.584 881.403 548.901Z"/>
	<path fill="#F9F9F9" transform="scale(0.365014 0.378788)" d="M887.39 564.547C892.959 564.34 899.693 563.229 904.711 566.001C906.219 569 905.425 575.277 905.398 578.748L890.307 578.999C885.786 579.108 875.805 580.433 872.258 577.571C871.48 573.27 874.073 568.751 875.952 565.028L887.39 564.547Z"/>
	<path fill="#199E55" transform="scale(0.365014 0.378788)" d="M743.25 557.475L808.525 557.06L827.617 557.019C830.847 557.036 834.593 556.742 837.763 557.414C840.98 558.096 843.507 560.162 845.835 562.364C847.518 563.957 850.847 567.187 850.829 569.618C850.759 579.282 849.234 586.158 844.998 594.881C842.58 599.861 838.445 605.503 833.022 607.349C813.434 608.831 793.689 608.25 774.054 608.289C765.077 608.307 755.227 609.392 746.342 608.054C744.441 607.768 742.707 607.098 741.114 606.014C733.156 600.595 728.593 590.403 726.834 581.203C725.764 575.606 725.289 569.987 728.828 565.089C732.508 559.995 737.272 558.344 743.25 557.475Z"/>
	<path fill="#F9F9F9" transform="scale(0.365014 0.378788)" d="M772.447 573.089L835.686 573.349L830.483 591.478L806.805 591.721L747.676 591.959L742.361 573.336L772.447 573.089Z"/>
</svg>
